<svg width="20" height="16" viewBox="0 0 20 16" fill="none" xmlns="http://www.w3.org/2000/svg">
<path d="M16.9556 1.28667C16.9497 1.27568 16.94 1.26721 16.9283 1.26286C15.6326 0.668263 14.2652 0.24411 12.8605 0.00100312C12.8478 -0.00131 12.8348 0.000400616 12.8232 0.00589341C12.8116 0.0113862 12.802 0.0203836 12.7958 0.0316143C12.6095 0.369797 12.4404 0.717165 12.2891 1.07239C10.774 0.842426 9.23287 0.842426 7.7178 1.07239C7.56587 0.716286 7.39441 0.368832 7.20421 0.0316143C7.19765 0.0207182 7.18801 0.0120014 7.17652 0.00655603C7.16502 0.0011107 7.15217 -0.000820952 7.13959 0.00100312C5.73235 0.243015 4.36261 0.667199 3.0649 1.26286C3.05352 1.26769 3.04398 1.27603 3.03769 1.28667C0.445949 5.16068 -0.26491 8.93606 0.0820161 12.6672C0.0829985 12.6766 0.0859251 12.6857 0.0906097 12.6939C0.0952943 12.7021 0.101634 12.7092 0.109226 12.7148C1.61891 13.8315 3.30725 14.6837 5.10224 15.2351C5.11514 15.2391 5.12897 15.239 5.14178 15.2347C5.15459 15.2304 5.16574 15.2223 5.17367 15.2113C5.5588 14.687 5.90008 14.1319 6.19404 13.5515C6.19796 13.5435 6.20018 13.5348 6.20057 13.526C6.20096 13.5171 6.19952 13.5082 6.19633 13.4999C6.19313 13.4916 6.18826 13.484 6.18202 13.4777C6.17577 13.4714 6.16829 13.4664 6.16003 13.4631C5.62077 13.2565 5.09874 13.0074 4.59886 12.7182C4.59003 12.7128 4.58262 12.7054 4.57727 12.6965C4.57192 12.6876 4.56878 12.6776 4.56811 12.6673C4.56745 12.6569 4.56927 12.6466 4.57344 12.6371C4.57761 12.6276 4.58399 12.6193 4.59206 12.6128C4.6975 12.5346 4.80294 12.4529 4.90157 12.3713C4.91027 12.3637 4.92097 12.3587 4.93241 12.3568C4.94384 12.355 4.95556 12.3565 4.96619 12.3611C8.23819 13.8542 11.7823 13.8542 15.0169 12.3611C15.0272 12.3561 15.0387 12.354 15.0501 12.3552C15.0616 12.3564 15.0724 12.3608 15.0815 12.3679C15.1801 12.4495 15.2856 12.5346 15.391 12.6128C15.3991 12.6193 15.4054 12.6276 15.4096 12.6371C15.4138 12.6466 15.4156 12.6569 15.4149 12.6673C15.4143 12.6776 15.4111 12.6876 15.4058 12.6965C15.4004 12.7054 15.393 12.7128 15.3842 12.7182C14.8856 13.0089 14.3634 13.2569 13.823 13.4597C13.8148 13.463 13.8073 13.468 13.801 13.4743C13.7948 13.4806 13.7899 13.4882 13.7867 13.4965C13.7835 13.5048 13.7821 13.5137 13.7825 13.5226C13.7829 13.5314 13.7851 13.5401 13.789 13.5481C14.0881 14.1256 14.4291 14.6804 14.8094 15.2079C14.8173 15.2189 14.8285 15.227 14.8413 15.2313C14.8541 15.2356 14.8679 15.2357 14.8808 15.2317C16.681 14.6828 18.3742 13.8304 19.8874 12.7114C19.8952 12.706 19.9016 12.6989 19.9063 12.6907C19.911 12.6824 19.9139 12.6733 19.9146 12.6638C20.3296 8.35444 19.214 4.60968 16.9556 1.28667ZM6.68382 10.3952C5.69746 10.3952 4.88797 9.49046 4.88797 8.38165C4.88797 7.27285 5.68386 6.36472 6.68382 6.36472C7.69399 6.36472 8.49668 7.27625 8.47967 8.37825C8.47967 9.49046 7.68378 10.3952 6.68382 10.3952ZM13.3298 10.3952C12.3435 10.3952 11.534 9.49046 11.534 8.38165C11.534 7.27285 12.3265 6.36472 13.3298 6.36472C14.34 6.36472 15.1427 7.27625 15.1257 8.37825C15.1257 9.49046 14.3366 10.3952 13.3298 10.3952Z" fill="#FEFEFE"/>
</svg>
