<svg width="32" height="32" viewBox="0 0 32 32" fill="none" xmlns="http://www.w3.org/2000/svg">
<circle cx="16" cy="16" r="16" fill="#C29E81"/>
<path d="M22.9556 9.28667C22.9497 9.27568 22.94 9.26721 22.9283 9.26286C21.6326 8.66826 20.2653 8.24411 18.8605 8.001C18.8478 7.99869 18.8348 8.0004 18.8232 8.00589C18.8116 8.01139 18.802 8.02038 18.7958 8.03161C18.6095 8.3698 18.4404 8.71716 18.2891 9.07239C16.774 8.84243 15.2329 8.84243 13.7178 9.07239C13.5659 8.71629 13.3944 8.36883 13.2042 8.03161C13.1976 8.02072 13.188 8.012 13.1765 8.00656C13.165 8.00111 13.1522 7.99918 13.1396 8.001C11.7324 8.24301 10.3626 8.6672 9.0649 9.26286C9.05352 9.26769 9.04398 9.27603 9.03769 9.28667C6.44595 13.1607 5.73509 16.9361 6.08202 20.6672C6.083 20.6766 6.08593 20.6857 6.09061 20.6939C6.09529 20.7021 6.10163 20.7092 6.10923 20.7148C7.61891 21.8315 9.30725 22.6837 11.1022 23.2351C11.1151 23.2391 11.129 23.239 11.1418 23.2347C11.1546 23.2304 11.1657 23.2223 11.1737 23.2113C11.5588 22.687 11.9001 22.1319 12.194 21.5515C12.198 21.5435 12.2002 21.5348 12.2006 21.526C12.201 21.5171 12.1995 21.5082 12.1963 21.4999C12.1931 21.4916 12.1883 21.484 12.182 21.4777C12.1758 21.4714 12.1683 21.4664 12.16 21.4631C11.6208 21.2565 11.0987 21.0074 10.5989 20.7182C10.59 20.7128 10.5826 20.7054 10.5773 20.6965C10.5719 20.6876 10.5688 20.6776 10.5681 20.6673C10.5674 20.6569 10.5693 20.6466 10.5734 20.6371C10.5776 20.6276 10.584 20.6193 10.5921 20.6128C10.6975 20.5346 10.8029 20.4529 10.9016 20.3713C10.9103 20.3637 10.921 20.3587 10.9324 20.3568C10.9438 20.355 10.9556 20.3565 10.9662 20.3611C14.2382 21.8542 17.7823 21.8542 21.0169 20.3611C21.0272 20.3561 21.0387 20.354 21.0501 20.3552C21.0616 20.3564 21.0724 20.3608 21.0815 20.3679C21.1801 20.4495 21.2856 20.5346 21.391 20.6128C21.3991 20.6193 21.4054 20.6276 21.4096 20.6371C21.4138 20.6466 21.4156 20.6569 21.4149 20.6673C21.4143 20.6776 21.4111 20.6876 21.4058 20.6965C21.4004 20.7054 21.393 20.7128 21.3842 20.7182C20.8856 21.0089 20.3634 21.2569 19.823 21.4597C19.8148 21.463 19.8073 21.468 19.801 21.4743C19.7948 21.4806 19.7899 21.4882 19.7867 21.4965C19.7835 21.5048 19.7821 21.5137 19.7825 21.5226C19.7829 21.5314 19.7851 21.5401 19.789 21.5481C20.0881 22.1256 20.4291 22.6804 20.8094 23.2079C20.8173 23.2189 20.8285 23.227 20.8413 23.2313C20.8541 23.2356 20.8679 23.2357 20.8808 23.2317C22.681 22.6828 24.3742 21.8304 25.8874 20.7114C25.8952 20.706 25.9016 20.6989 25.9063 20.6907C25.911 20.6824 25.9139 20.6733 25.9146 20.6638C26.3296 16.3544 25.214 12.6097 22.9556 9.28667ZM12.6838 18.3952C11.6975 18.3952 10.888 17.4905 10.888 16.3817C10.888 15.2729 11.6839 14.3647 12.6838 14.3647C13.694 14.3647 14.4967 15.2763 14.4797 16.3783C14.4797 17.4905 13.6838 18.3952 12.6838 18.3952ZM19.3298 18.3952C18.3435 18.3952 17.534 17.4905 17.534 16.3817C17.534 15.2729 18.3265 14.3647 19.3298 14.3647C20.34 14.3647 21.1427 15.2763 21.1257 16.3783C21.1257 17.4905 20.3366 18.3952 19.3298 18.3952Z" fill="#FEFEFE"/>
</svg>
