<svg width="32" height="32" viewBox="0 0 32 32" fill="none" xmlns="http://www.w3.org/2000/svg">
<circle cx="16" cy="16" r="16" fill="#C29E81"/>
<path d="M7.875 8.5C6.83984 8.5 6 9.33984 6 10.375C6 10.9648 6.27734 11.5195 6.75 11.875L15.25 18.25C15.6953 18.582 16.3047 18.582 16.75 18.25L25.25 11.875C25.7227 11.5195 26 10.9648 26 10.375C26 9.33984 25.1602 8.5 24.125 8.5H7.875ZM6 12.875V21C6 22.3789 7.12109 23.5 8.5 23.5H23.5C24.8789 23.5 26 22.3789 26 21V12.875L17.5 19.25C16.6094 19.918 15.3906 19.918 14.5 19.25L6 12.875Z" fill="white"/>
</svg>
