<svg width="32" height="32" viewBox="0 0 32 32" fill="none" xmlns="http://www.w3.org/2000/svg">
<circle cx="16" cy="16" r="16" fill="#C29E81"/>
<path d="M12.6895 21.7016C12.6895 21.7823 12.5968 21.8468 12.4798 21.8468C12.3468 21.8589 12.254 21.7944 12.254 21.7016C12.254 21.621 12.3468 21.5565 12.4637 21.5565C12.5847 21.5444 12.6895 21.6089 12.6895 21.7016ZM11.4355 21.5202C11.4073 21.6008 11.4879 21.6935 11.6089 21.7177C11.7137 21.7581 11.8347 21.7177 11.8589 21.6371C11.8831 21.5565 11.8065 21.4637 11.6855 21.4274C11.5806 21.3992 11.4637 21.4395 11.4355 21.5202ZM13.2177 21.4516C13.1008 21.4798 13.0202 21.5565 13.0323 21.6492C13.0444 21.7298 13.1492 21.7823 13.2702 21.754C13.3871 21.7258 13.4677 21.6492 13.4556 21.5685C13.4435 21.4919 13.3347 21.4395 13.2177 21.4516ZM15.871 6C10.2782 6 6 10.246 6 15.8387C6 20.3105 8.81452 24.1371 12.8347 25.4839C13.3508 25.5766 13.5323 25.2581 13.5323 24.996C13.5323 24.746 13.5202 23.3669 13.5202 22.5202C13.5202 22.5202 10.6976 23.125 10.1048 21.3185C10.1048 21.3185 9.64516 20.1452 8.98387 19.8427C8.98387 19.8427 8.06048 19.2097 9.04839 19.2218C9.04839 19.2218 10.0524 19.3024 10.6048 20.2621C11.4879 21.8185 12.9677 21.371 13.5444 21.1048C13.6371 20.4597 13.8992 20.0121 14.1895 19.746C11.9355 19.496 9.66129 19.1694 9.66129 15.2903C9.66129 14.1815 9.96774 13.625 10.6129 12.9153C10.5081 12.6532 10.1653 11.5726 10.7177 10.1774C11.5605 9.91532 13.5 11.2661 13.5 11.2661C14.3065 11.0403 15.1734 10.9234 16.0323 10.9234C16.8911 10.9234 17.7581 11.0403 18.5645 11.2661C18.5645 11.2661 20.504 9.91129 21.3468 10.1774C21.8992 11.5766 21.5565 12.6532 21.4516 12.9153C22.0968 13.629 22.4919 14.1855 22.4919 15.2903C22.4919 19.1815 20.1169 19.4919 17.8629 19.746C18.2339 20.0645 18.5484 20.6694 18.5484 21.6169C18.5484 22.9758 18.5363 24.6573 18.5363 24.9879C18.5363 25.25 18.7218 25.5685 19.2339 25.4758C23.2661 24.1371 26 20.3105 26 15.8387C26 10.246 21.4637 6 15.871 6ZM9.91935 19.9073C9.86694 19.9476 9.87903 20.0403 9.94758 20.1169C10.0121 20.1815 10.1048 20.2097 10.1573 20.1573C10.2097 20.1169 10.1976 20.0242 10.129 19.9476C10.0645 19.8831 9.97177 19.8548 9.91935 19.9073ZM9.48387 19.5806C9.45565 19.6331 9.49597 19.6976 9.57661 19.7379C9.64113 19.7782 9.72177 19.7661 9.75 19.7097C9.77823 19.6573 9.7379 19.5927 9.65726 19.5524C9.57661 19.5282 9.5121 19.5403 9.48387 19.5806ZM10.7903 21.0161C10.7258 21.0685 10.75 21.1895 10.8427 21.2661C10.9355 21.3589 11.0524 21.371 11.1048 21.3065C11.1573 21.254 11.1331 21.1331 11.0524 21.0565C10.9637 20.9637 10.8427 20.9516 10.7903 21.0161ZM10.3306 20.4234C10.2661 20.4637 10.2661 20.5685 10.3306 20.6613C10.3952 20.754 10.504 20.7944 10.5565 20.754C10.621 20.7016 10.621 20.5968 10.5565 20.504C10.5 20.4113 10.3952 20.371 10.3306 20.4234Z" fill="white"/>
</svg>
