<svg width="32" height="32" viewBox="0 0 32 32" fill="none" xmlns="http://www.w3.org/2000/svg">
<circle cx="16" cy="16" r="16" fill="#C29E81"/>
<path d="M5.99498 17.5998C6.93798 17.9119 8.20025 18.2773 8.86109 18.2926C9.46029 18.3078 10.1256 18.0566 10.8584 17.5389C15.8726 14.0674 18.4618 12.3142 18.6251 12.2784C18.7365 12.2556 18.8925 12.2175 19.0038 12.3165C19.1152 12.4154 19.1078 12.5982 19.0929 12.6514C19.0038 13.0473 14.2963 17.4399 14.0216 17.7292C12.9895 18.8331 11.8089 19.5106 13.628 20.7363C15.1947 21.8021 16.1154 22.4796 17.7341 23.5683C18.7736 24.2686 19.583 25.0908 20.6522 24.9919C21.1423 24.9462 21.6472 24.4742 21.9071 23.0582C22.5159 19.7162 23.7188 12.4687 23.9935 9.4845C24.0091 9.23252 23.9965 8.97977 23.9564 8.73083C23.9349 8.53366 23.842 8.35171 23.6965 8.22077C23.4738 8.03806 23.1396 8 22.9837 8C22.2932 8.01523 21.2314 8.39587 16.1154 10.5731C14.3238 11.3398 10.7448 12.9202 5.3787 15.3159C4.50253 15.6715 4.0444 16.0186 4.00504 16.3589C3.92337 17.0136 4.84409 17.2191 5.99498 17.5998Z" fill="white"/>
</svg>
