<svg width="24" height="17" viewBox="0 0 24 17" fill="none" xmlns="http://www.w3.org/2000/svg">
<path d="M1.99498 9.59979C2.93798 9.91192 4.20025 10.2773 4.86109 10.2926C5.46029 10.3078 6.12559 10.0566 6.85845 9.53889C11.8726 6.06743 14.4618 4.3142 14.6251 4.27842C14.7365 4.25558 14.8925 4.21751 15.0038 4.31648C15.1152 4.41545 15.1078 4.59815 15.0929 4.65144C15.0038 5.04731 10.2963 9.43992 10.0216 9.72921C8.98946 10.8331 7.80887 11.5106 9.62803 12.7363C11.1947 13.8021 12.1154 14.4796 13.7341 15.5683C14.7736 16.2686 15.583 17.0908 16.6522 16.9919C17.1423 16.9462 17.6472 16.4742 17.9071 15.0582C18.5159 11.7162 19.7188 4.46874 19.9935 1.4845C20.0091 1.23252 19.9965 0.979772 19.9564 0.730833C19.9349 0.53366 19.842 0.351713 19.6965 0.220772C19.4738 0.0380642 19.1396 0 18.9837 0C18.2932 0.0152257 17.2314 0.395868 12.1154 2.57314C10.3238 3.33975 6.74484 4.92018 1.3787 7.31594C0.502529 7.67146 0.0443981 8.0186 0.00504483 8.3589C-0.0766317 9.0136 0.844086 9.21915 1.99498 9.59979Z" fill="white"/>
</svg>
